<?xml version="1.0" encoding="utf-8"?>
<!-- Generator: Adobe Illustrator 26.3.1, SVG Export Plug-In . SVG Version: 6.00 Build 0)  -->
<svg version="1.1" id="Layer_1" xmlns="http://www.w3.org/2000/svg" xmlns:xlink="http://www.w3.org/1999/xlink" x="0px" y="0px"
	 viewBox="0 0 800 90" style="enable-background:new 0 0 800 90;" xml:space="preserve">
<style type="text/css">
	.st0{fill:#0071BC;}
	.st1{fill:url(#SVGID_1_);}
	.st2{fill:url(#SVGID_00000040537333589985746660000013766946067785384118_);}
	.st3{fill:url(#SVGID_00000158745310193379197890000010244818560055939468_);}
	.st4{fill:url(#SVGID_00000114059892304540269350000017639789872788815233_);}
</style>
<g>
	<g>
		<path d="M186.53,67.8V21.47L165.4,57.61h-2.42l-21.13-36.14V67.8h-3.85V14.23h3.85l22.34,38.33l22.34-38.33h3.85V67.8H186.53z"/>
		<path d="M207.81,81.08c0.25,0.05,0.63,0.08,1.13,0.08c0.5,0,0.97-0.03,1.4-0.08c0.43-0.05,0.84-0.18,1.25-0.38
			c0.3-0.15,0.58-0.37,0.83-0.64c0.25-0.28,0.6-0.84,1.06-1.7c0.45-0.86,1.03-2.11,1.74-3.77c0.7-1.66,1.66-3.92,2.87-6.79
			l-17.51-39.24h3.92l15.62,35.54l14.56-35.54h3.7l-21.51,51.61c-0.55,1.41-1.45,2.5-2.68,3.28c-1.23,0.78-2.91,1.17-5.02,1.17
			c-0.2,0-0.42,0-0.64,0c-0.23,0-0.47-0.03-0.72-0.08V81.08z"/>
		<path d="M288.4,53.92c0,1.96-0.38,3.79-1.13,5.47c-0.75,1.69-1.79,3.16-3.09,4.42c-1.31,1.26-2.84,2.24-4.6,2.94
			c-1.76,0.71-3.62,1.06-5.58,1.06h-25.05V14.23h24.98c1.86,0,3.55,0.4,5.06,1.21c1.51,0.81,2.79,1.85,3.85,3.13
			c1.06,1.28,1.87,2.74,2.45,4.38c0.58,1.64,0.87,3.28,0.87,4.94c0,2.72-0.68,5.21-2.04,7.47c-1.36,2.26-3.25,3.92-5.66,4.98
			c3.07,0.91,5.5,2.6,7.28,5.09C287.51,47.92,288.4,50.75,288.4,53.92z M252.78,17.7v21.43h19.62c1.46,0,2.79-0.3,4-0.91
			c1.21-0.6,2.25-1.4,3.13-2.38c0.88-0.98,1.57-2.12,2.08-3.43c0.5-1.31,0.75-2.64,0.75-4c0-1.46-0.24-2.83-0.72-4.11
			c-0.48-1.28-1.13-2.41-1.96-3.4s-1.82-1.76-2.98-2.34c-1.16-0.58-2.44-0.87-3.85-0.87H252.78z M284.55,53.39
			c0-1.41-0.25-2.78-0.75-4.11c-0.5-1.33-1.21-2.51-2.11-3.55c-0.91-1.03-1.97-1.85-3.21-2.45c-1.23-0.6-2.55-0.91-3.96-0.91h-21.73
			v21.96h21.2c1.51,0,2.91-0.3,4.19-0.91s2.39-1.42,3.32-2.45c0.93-1.03,1.67-2.2,2.23-3.51C284.27,56.16,284.55,54.8,284.55,53.39z
			"/>
		<path d="M311.79,68.56c-8.35,0-12.53-5.79-12.53-17.36V28.56h3.77v22.11c0,9.66,3.29,14.49,9.88,14.49c1.66,0,3.27-0.29,4.83-0.87
			c1.56-0.58,3.02-1.38,4.38-2.42c1.36-1.03,2.55-2.28,3.58-3.74c1.03-1.46,1.85-3.07,2.45-4.83V28.56h3.77v33.96
			c0,1.26,0.53,1.89,1.58,1.89v3.4c-0.25,0.05-0.48,0.08-0.68,0.08c-0.2,0-0.35,0-0.45,0c-1.01,0-1.9-0.31-2.68-0.94
			c-0.78-0.63-1.17-1.47-1.17-2.53v-5.89c-1.71,3.17-4.06,5.63-7.06,7.39C318.49,67.68,315.26,68.56,311.79,68.56z"/>
		<path d="M361.97,68.56c-2.72,0-5.23-0.57-7.55-1.7c-2.31-1.13-4.31-2.64-6-4.53c-1.69-1.89-2.99-4.05-3.92-6.49
			c-0.93-2.44-1.4-4.97-1.4-7.58c0-2.72,0.45-5.31,1.36-7.77c0.91-2.46,2.16-4.63,3.77-6.49c1.61-1.86,3.51-3.35,5.7-4.45
			c2.19-1.11,4.59-1.66,7.21-1.66c1.71,0,3.32,0.25,4.83,0.75c1.51,0.5,2.92,1.17,4.23,2c1.31,0.83,2.49,1.8,3.55,2.91
			c1.06,1.11,1.96,2.29,2.72,3.55V12.72h3.77v49.8c0,1.26,0.53,1.89,1.58,1.89v3.4c-0.3,0.05-0.55,0.09-0.75,0.11
			c-0.2,0.02-0.4,0.04-0.6,0.04c-1.01,0-1.86-0.39-2.57-1.17c-0.71-0.78-1.06-1.6-1.06-2.45v-4.38c-1.61,2.62-3.76,4.7-6.45,6.26
			C367.69,67.78,364.89,68.56,361.97,68.56z M362.65,65.16c1.36,0,2.82-0.28,4.38-0.83c1.56-0.55,3.01-1.32,4.34-2.3
			c1.33-0.98,2.48-2.1,3.43-3.36c0.96-1.26,1.51-2.62,1.66-4.07v-12.9c-0.55-1.41-1.35-2.75-2.38-4.04
			c-1.03-1.28-2.2-2.39-3.51-3.32c-1.31-0.93-2.72-1.67-4.23-2.23c-1.51-0.55-2.97-0.83-4.38-0.83c-2.26,0-4.33,0.49-6.19,1.47
			c-1.86,0.98-3.45,2.26-4.75,3.85c-1.31,1.58-2.31,3.4-3.02,5.43c-0.71,2.04-1.06,4.14-1.06,6.3c0,2.26,0.4,4.4,1.21,6.41
			c0.8,2.01,1.92,3.8,3.36,5.36c1.43,1.56,3.09,2.79,4.98,3.7C358.39,64.71,360.44,65.16,362.65,65.16z"/>
		<path d="M410.26,68.56c-2.72,0-5.23-0.57-7.55-1.7c-2.31-1.13-4.31-2.64-6-4.53c-1.69-1.89-2.99-4.05-3.92-6.49
			c-0.93-2.44-1.4-4.97-1.4-7.58c0-2.72,0.45-5.31,1.36-7.77c0.91-2.46,2.16-4.63,3.77-6.49c1.61-1.86,3.51-3.35,5.7-4.45
			c2.19-1.11,4.59-1.66,7.21-1.66c1.71,0,3.32,0.25,4.83,0.75c1.51,0.5,2.92,1.17,4.23,2c1.31,0.83,2.49,1.8,3.55,2.91
			c1.06,1.11,1.96,2.29,2.72,3.55V12.72h3.77v49.8c0,1.26,0.53,1.89,1.58,1.89v3.4c-0.3,0.05-0.55,0.09-0.75,0.11
			c-0.2,0.02-0.4,0.04-0.6,0.04c-1.01,0-1.86-0.39-2.57-1.17c-0.71-0.78-1.06-1.6-1.06-2.45v-4.38c-1.61,2.62-3.76,4.7-6.45,6.26
			C415.99,67.78,413.18,68.56,410.26,68.56z M410.94,65.16c1.36,0,2.82-0.28,4.38-0.83c1.56-0.55,3.01-1.32,4.34-2.3
			c1.33-0.98,2.48-2.1,3.43-3.36c0.96-1.26,1.51-2.62,1.66-4.07v-12.9c-0.55-1.41-1.35-2.75-2.38-4.04
			c-1.03-1.28-2.2-2.39-3.51-3.32c-1.31-0.93-2.72-1.67-4.23-2.23c-1.51-0.55-2.97-0.83-4.38-0.83c-2.26,0-4.33,0.49-6.19,1.47
			c-1.86,0.98-3.45,2.26-4.75,3.85c-1.31,1.58-2.31,3.4-3.02,5.43c-0.71,2.04-1.06,4.14-1.06,6.3c0,2.26,0.4,4.4,1.21,6.41
			c0.8,2.01,1.92,3.8,3.36,5.36c1.43,1.56,3.09,2.79,4.98,3.7C406.68,64.71,408.73,65.16,410.94,65.16z"/>
		<path d="M445.05,81.08c0.25,0.05,0.63,0.08,1.13,0.08c0.5,0,0.97-0.03,1.4-0.08c0.43-0.05,0.84-0.18,1.25-0.38
			c0.3-0.15,0.58-0.37,0.83-0.64c0.25-0.28,0.6-0.84,1.06-1.7c0.45-0.86,1.03-2.11,1.74-3.77c0.7-1.66,1.66-3.92,2.87-6.79
			l-17.51-39.24h3.92l15.62,35.54l14.56-35.54h3.7l-21.51,51.61c-0.55,1.41-1.45,2.5-2.68,3.28c-1.23,0.78-2.91,1.17-5.02,1.17
			c-0.2,0-0.42,0-0.64,0c-0.23,0-0.47-0.03-0.72-0.08V81.08z"/>
		<path d="M486.18,67.8V14.23h3.85v50.11h32v3.47H486.18z"/>
		<path d="M530.77,19.66v-6.94h3.77v6.94H530.77z M530.77,67.8V28.56h3.77V67.8H530.77z"/>
		<path d="M560.73,68.56c-3.02,0-5.91-0.5-8.68-1.51c-2.77-1.01-5.18-2.51-7.24-4.53l1.89-2.57c2.11,1.91,4.3,3.32,6.57,4.23
			s4.75,1.36,7.47,1.36c3.42,0,6.17-0.72,8.26-2.15c2.09-1.43,3.13-3.43,3.13-6c0-1.21-0.26-2.23-0.79-3.06s-1.32-1.53-2.38-2.11
			s-2.37-1.09-3.92-1.55c-1.56-0.45-3.37-0.93-5.43-1.43c-2.21-0.5-4.14-1-5.77-1.51c-1.63-0.5-2.98-1.11-4.04-1.81
			c-1.06-0.7-1.85-1.56-2.38-2.57c-0.53-1.01-0.79-2.29-0.79-3.85c0-1.96,0.38-3.67,1.13-5.13c0.75-1.46,1.8-2.67,3.13-3.62
			c1.33-0.96,2.87-1.67,4.6-2.15c1.74-0.48,3.58-0.72,5.55-0.72c3.07,0,5.78,0.52,8.15,1.55c2.36,1.03,4.2,2.35,5.51,3.96
			l-2.11,2.04c-1.31-1.51-3.01-2.64-5.09-3.4c-2.09-0.75-4.31-1.13-6.68-1.13c-1.46,0-2.83,0.15-4.11,0.45
			c-1.28,0.3-2.4,0.78-3.36,1.43c-0.96,0.65-1.71,1.5-2.26,2.53c-0.55,1.03-0.83,2.25-0.83,3.66c0,1.16,0.19,2.09,0.57,2.79
			c0.38,0.71,0.98,1.31,1.81,1.81c0.83,0.5,1.9,0.94,3.21,1.32c1.31,0.38,2.87,0.79,4.68,1.25c2.46,0.6,4.65,1.18,6.56,1.74
			s3.51,1.23,4.79,2.04c1.28,0.8,2.26,1.76,2.94,2.87c0.68,1.11,1.02,2.52,1.02,4.23c0,3.52-1.37,6.33-4.11,8.41
			C568.96,67.51,565.31,68.56,560.73,68.56z"/>
		<path d="M603.97,65.92c-0.2,0.1-0.54,0.29-1.02,0.57c-0.48,0.28-1.08,0.54-1.81,0.79c-0.73,0.25-1.55,0.48-2.45,0.68
			c-0.91,0.2-1.89,0.3-2.94,0.3c-1.06,0-2.05-0.15-2.98-0.45c-0.93-0.3-1.75-0.75-2.45-1.36c-0.71-0.6-1.26-1.33-1.66-2.19
			c-0.4-0.85-0.6-1.86-0.6-3.02V31.66h-5.51v-3.09h5.51V15.13h3.77v13.43h9.13v3.09h-9.13v28.67c0,1.46,0.5,2.55,1.51,3.28
			c1.01,0.73,2.14,1.09,3.4,1.09c1.56,0,2.91-0.26,4.04-0.79c1.13-0.53,1.82-0.87,2.08-1.02L603.97,65.92z"/>
		<path d="M634.6,77.61V9.32h3.4v68.29H634.6z"/>
		<path class="st0" d="M673.01,67.8V14.23h22.86c2.57,0,4.92,0.53,7.06,1.58c2.14,1.06,3.97,2.44,5.51,4.15
			c1.53,1.71,2.74,3.65,3.62,5.81c0.88,2.16,1.32,4.35,1.32,6.56c0,2.37-0.42,4.63-1.25,6.79c-0.83,2.16-1.99,4.1-3.47,5.81
			c-1.48,1.71-3.28,3.07-5.4,4.08c-2.11,1.01-4.45,1.51-7.02,1.51h-10.87V67.8H673.01z M685.38,39.73h10.11
			c1.46,0,2.72-0.63,3.77-1.89c1.06-1.26,1.58-3.09,1.58-5.51c0-1.26-0.16-2.34-0.49-3.25c-0.33-0.91-0.77-1.66-1.32-2.26
			c-0.55-0.6-1.18-1.04-1.89-1.32c-0.71-0.28-1.41-0.42-2.11-0.42h-9.66V39.73z"/>
		<path class="st0" d="M746.05,38.52c-2.92,0.05-5.56,0.53-7.92,1.43c-2.37,0.91-4.08,2.26-5.13,4.08V67.8h-12.07V28.19h11.09v8
			c1.36-2.67,3.11-4.75,5.24-6.26c2.14-1.51,4.41-2.29,6.83-2.34c0.55,0,0.96,0,1.21,0c0.25,0,0.5,0.03,0.75,0.08V38.52z"/>
		<path class="st0" d="M769.9,68.56c-3.37,0-6.38-0.55-9.02-1.66c-2.64-1.11-4.87-2.6-6.68-4.49c-1.81-1.89-3.18-4.07-4.11-6.56
			c-0.93-2.49-1.4-5.09-1.4-7.81s0.46-5.32,1.4-7.81c0.93-2.49,2.3-4.68,4.11-6.56c1.81-1.89,4.04-3.4,6.68-4.53
			c2.64-1.13,5.65-1.7,9.02-1.7c3.37,0,6.36,0.57,8.98,1.7c2.62,1.13,4.83,2.64,6.64,4.53c1.81,1.89,3.19,4.07,4.15,6.56
			c0.96,2.49,1.43,5.09,1.43,7.81s-0.47,5.32-1.4,7.81c-0.93,2.49-2.3,4.68-4.11,6.56c-1.81,1.89-4.04,3.38-6.68,4.49
			C776.27,68,773.27,68.56,769.9,68.56z M761.07,48.03c0,3.12,0.83,5.62,2.49,7.51c1.66,1.89,3.77,2.83,6.34,2.83
			c1.26,0,2.41-0.25,3.47-0.75c1.06-0.5,1.97-1.21,2.75-2.11c0.78-0.91,1.4-2,1.85-3.28c0.45-1.28,0.68-2.68,0.68-4.19
			c0-3.12-0.83-5.62-2.49-7.51c-1.66-1.89-3.75-2.83-6.26-2.83c-1.26,0-2.43,0.25-3.51,0.75c-1.08,0.5-2.01,1.21-2.79,2.11
			c-0.78,0.91-1.4,2-1.85,3.28C761.3,45.13,761.07,46.52,761.07,48.03z"/>
	</g>
	<linearGradient id="SVGID_1_" gradientUnits="userSpaceOnUse" x1="8.8976" y1="53.9753" x2="110.3305" y2="53.9753">
		<stop  offset="0" style="stop-color:#1B75BB"/>
		<stop  offset="1" style="stop-color:#00ADEE"/>
	</linearGradient>
	<path class="st1" d="M106.82,53.32H96.15c-0.87,0-1.58-0.71-1.58-1.58v-3.26v-7.46c0-2.74-1.11-5.22-2.9-7.01
		c-1.79-1.79-4.3-2.92-7.02-2.92c-2.74,0-5.22,1.13-7.02,2.92c-1.79,1.79-2.92,4.27-2.92,7.01v9.71v23.1v0.1
		c0,0.79-0.32,1.51-0.85,2.05c-0.54,0.52-1.27,0.85-2.06,0.85c-0.81,0-1.53-0.32-2.06-0.85c-0.52-0.54-0.87-1.27-0.87-2.05v-2.36
		V36.39v-2.36c0-2.74-1.11-5.22-2.9-7.01c-1.82-1.79-4.3-2.92-7.02-2.92c-2.74,0-5.22,1.13-7.02,2.92
		c-1.81,1.79-2.92,4.27-2.92,7.01v7.19v10.74v16.05c0,0.79-0.32,1.51-0.87,2.05c-0.52,0.52-1.25,0.85-2.04,0.85
		c-0.81,0-1.53-0.32-2.06-0.85c-0.54-0.54-0.87-1.27-0.87-2.05v-3.83V50.23c0-2.72-1.11-5.2-2.92-7.01c-1.79-1.79-4.28-2.9-7.02-2.9
		c-2.72,0-5.2,1.11-7.02,2.9c-1.79,1.81-2.9,4.29-2.9,7.01v1.51c0,0.87-0.71,1.58-1.58,1.58h-9.34c-1.94,0-3.51,1.57-3.51,3.51
		c0,1.94,1.57,3.51,3.51,3.51h10.92c3.88,0,7.02-3.14,7.02-7.02v-3.09c0-0.79,0.32-1.51,0.87-2.03c0.52-0.54,1.25-0.87,2.04-0.87
		c0.81,0,1.53,0.32,2.06,0.87c0.54,0.52,0.87,1.25,0.87,2.03v13.96v3.83c0,2.72,1.11,5.22,2.9,7.01c1.82,1.79,4.3,2.9,7.04,2.9
		c2.72,0,5.2-1.11,7.02-2.9c1.79-1.79,2.9-4.29,2.9-7.01V51.96V41.23v-7.19c0-0.81,0.32-1.53,0.87-2.05
		c0.52-0.52,1.25-0.87,2.06-0.87c0.79,0,1.51,0.34,2.04,0.87c0.54,0.52,0.87,1.25,0.87,2.05v2.36v35.19v2.36
		c0,2.72,1.11,5.22,2.92,7.01c1.79,1.79,4.28,2.9,7.02,2.9c2.72,0,5.22-1.11,7.02-2.9c1.79-1.79,2.9-4.29,2.9-7.01v-0.1v-23.1v-9.71
		c0-0.81,0.34-1.53,0.87-2.05c0.52-0.52,1.25-0.87,2.06-0.87c0.79,0,1.51,0.34,2.06,0.87c0.52,0.52,0.85,1.25,0.85,2.05v10.89v1.41
		c0,3.88,3.14,7.02,7.02,7.02l0,0h12.24c1.94,0,3.51-1.57,3.51-3.51C110.33,54.89,108.76,53.32,106.82,53.32z"/>
	<g>
		
			<linearGradient id="SVGID_00000070082786062978513580000010867351637303162519_" gradientUnits="userSpaceOnUse" x1="-1.5556" y1="19.3304" x2="123.561" y2="19.3304">
			<stop  offset="0" style="stop-color:#1B75BB"/>
			<stop  offset="1" style="stop-color:#00ADEE"/>
		</linearGradient>
		<path style="fill:url(#SVGID_00000070082786062978513580000010867351637303162519_);" d="M84.65,12.35c-3.86,0-7,3.13-7,6.99
			s3.14,6.97,7,6.97c3.86,0,6.98-3.12,6.98-6.97S88.51,12.35,84.65,12.35z"/>
		
			<linearGradient id="SVGID_00000057839829859262628970000000616245284965474474_" gradientUnits="userSpaceOnUse" x1="-1.555" y1="12.3505" x2="123.5607" y2="12.3505">
			<stop  offset="0" style="stop-color:#1B75BB"/>
			<stop  offset="1" style="stop-color:#00ADEE"/>
		</linearGradient>
		<path style="fill:url(#SVGID_00000057839829859262628970000000616245284965474474_);" d="M58.51,5.37c-3.86,0-7,3.13-7,6.99
			c0,3.85,3.14,6.97,7,6.97s6.98-3.12,6.98-6.97C65.5,8.5,62.37,5.37,58.51,5.37z"/>
		
			<linearGradient id="SVGID_00000174567715940500848350000016637051276503505577_" gradientUnits="userSpaceOnUse" x1="-1.5552" y1="28.5462" x2="123.5614" y2="28.5462">
			<stop  offset="0" style="stop-color:#1B75BB"/>
			<stop  offset="1" style="stop-color:#00ADEE"/>
		</linearGradient>
		<path style="fill:url(#SVGID_00000174567715940500848350000016637051276503505577_);" d="M33.27,21.57c-3.86,0-7,3.13-7,6.99
			s3.14,6.97,7,6.97c3.86,0,6.98-3.12,6.98-6.97S37.12,21.57,33.27,21.57z"/>
	</g>
</g>
</svg>
