<?xml version="1.0" encoding="utf-8"?>
<!-- Generator: Adobe Illustrator 27.0.0, SVG Export Plug-In . SVG Version: 6.00 Build 0)  -->
<svg version="1.1" id="Layer_1" xmlns="http://www.w3.org/2000/svg" xmlns:xlink="http://www.w3.org/1999/xlink" x="0px" y="0px"
	 viewBox="0 0 800 90" style="enable-background:new 0 0 800 90;" xml:space="preserve">
<style type="text/css">
	.st0{fill:#E7E7E7;}
	.st1{fill:url(#SVGID_1_);}
	.st2{fill:url(#SVGID_00000015344228530168375430000004451723044644484532_);}
	.st3{fill:url(#SVGID_00000157271949293817156480000002337832071965650826_);}
	.st4{fill:url(#SVGID_00000152257500167664955820000014077036969340202915_);}
</style>
<g>
	<g>
		<path class="st0" d="M184.7,68.5V22.2l-21.1,36.1h-2.4L140,22.2v46.3h-3.8V15h3.8l22.3,38.3L184.7,15h3.8v53.6H184.7z"/>
		<path class="st0" d="M206,81.8c0.3,0,0.6,0.1,1.1,0.1c0.5,0,1,0,1.4-0.1c0.4-0.1,0.8-0.2,1.2-0.4c0.3-0.2,0.6-0.4,0.8-0.6
			c0.3-0.3,0.6-0.8,1.1-1.7c0.5-0.9,1-2.1,1.7-3.8c0.7-1.7,1.7-3.9,2.9-6.8l-17.5-39.2h3.9l15.6,35.5l14.6-35.5h3.7L215,80.9
			c-0.6,1.4-1.4,2.5-2.7,3.3c-1.2,0.8-2.9,1.2-5,1.2c-0.2,0-0.4,0-0.6,0c-0.2,0-0.5,0-0.7-0.1V81.8z"/>
		<path class="st0" d="M286.6,54.7c0,2-0.4,3.8-1.1,5.5c-0.8,1.7-1.8,3.2-3.1,4.4c-1.3,1.3-2.8,2.2-4.6,2.9
			c-1.8,0.7-3.6,1.1-5.6,1.1h-25.1V15h25c1.9,0,3.5,0.4,5.1,1.2c1.5,0.8,2.8,1.8,3.8,3.1c1.1,1.3,1.9,2.7,2.5,4.4
			c0.6,1.6,0.9,3.3,0.9,4.9c0,2.7-0.7,5.2-2,7.5c-1.4,2.3-3.2,3.9-5.7,5c3.1,0.9,5.5,2.6,7.3,5.1C285.7,48.7,286.6,51.5,286.6,54.7z
			 M250.9,18.4v21.4h19.6c1.5,0,2.8-0.3,4-0.9c1.2-0.6,2.3-1.4,3.1-2.4c0.9-1,1.6-2.1,2.1-3.4c0.5-1.3,0.8-2.6,0.8-4
			c0-1.5-0.2-2.8-0.7-4.1c-0.5-1.3-1.1-2.4-2-3.4s-1.8-1.8-3-2.3c-1.2-0.6-2.4-0.9-3.8-0.9H250.9z M282.7,54.1
			c0-1.4-0.3-2.8-0.8-4.1c-0.5-1.3-1.2-2.5-2.1-3.5c-0.9-1-2-1.8-3.2-2.5c-1.2-0.6-2.6-0.9-4-0.9h-21.7v22h21.2
			c1.5,0,2.9-0.3,4.2-0.9s2.4-1.4,3.3-2.5c0.9-1,1.7-2.2,2.2-3.5C282.4,56.9,282.7,55.5,282.7,54.1z"/>
		<path class="st0" d="M309.9,69.3c-8.4,0-12.5-5.8-12.5-17.4V29.3h3.8v22.1c0,9.7,3.3,14.5,9.9,14.5c1.7,0,3.3-0.3,4.8-0.9
			c1.6-0.6,3-1.4,4.4-2.4c1.4-1,2.6-2.3,3.6-3.7c1-1.5,1.8-3.1,2.5-4.8V29.3h3.8v34c0,1.3,0.5,1.9,1.6,1.9v3.4
			c-0.3,0-0.5,0.1-0.7,0.1c-0.2,0-0.4,0-0.5,0c-1,0-1.9-0.3-2.7-0.9c-0.8-0.6-1.2-1.5-1.2-2.5v-5.9c-1.7,3.2-4.1,5.6-7.1,7.4
			C316.6,68.4,313.4,69.3,309.9,69.3z"/>
		<path class="st0" d="M360.1,69.3c-2.7,0-5.2-0.6-7.5-1.7c-2.3-1.1-4.3-2.6-6-4.5c-1.7-1.9-3-4-3.9-6.5c-0.9-2.4-1.4-5-1.4-7.6
			c0-2.7,0.5-5.3,1.4-7.8c0.9-2.5,2.2-4.6,3.8-6.5c1.6-1.9,3.5-3.3,5.7-4.5c2.2-1.1,4.6-1.7,7.2-1.7c1.7,0,3.3,0.3,4.8,0.8
			c1.5,0.5,2.9,1.2,4.2,2c1.3,0.8,2.5,1.8,3.5,2.9c1.1,1.1,2,2.3,2.7,3.5V13.5h3.8v49.8c0,1.3,0.5,1.9,1.6,1.9v3.4
			c-0.3,0-0.6,0.1-0.8,0.1c-0.2,0-0.4,0-0.6,0c-1,0-1.9-0.4-2.6-1.2c-0.7-0.8-1.1-1.6-1.1-2.5v-4.4c-1.6,2.6-3.8,4.7-6.5,6.3
			C365.8,68.5,363,69.3,360.1,69.3z M360.8,65.9c1.4,0,2.8-0.3,4.4-0.8c1.6-0.6,3-1.3,4.3-2.3c1.3-1,2.5-2.1,3.4-3.4
			c1-1.3,1.5-2.6,1.7-4.1V42.4c-0.6-1.4-1.3-2.8-2.4-4c-1-1.3-2.2-2.4-3.5-3.3c-1.3-0.9-2.7-1.7-4.2-2.2c-1.5-0.6-3-0.8-4.4-0.8
			c-2.3,0-4.3,0.5-6.2,1.5c-1.9,1-3.4,2.3-4.8,3.8c-1.3,1.6-2.3,3.4-3,5.4c-0.7,2-1.1,4.1-1.1,6.3c0,2.3,0.4,4.4,1.2,6.4
			c0.8,2,1.9,3.8,3.4,5.4c1.4,1.6,3.1,2.8,5,3.7C356.5,65.4,358.6,65.9,360.8,65.9z"/>
		<path class="st0" d="M408.4,69.3c-2.7,0-5.2-0.6-7.5-1.7c-2.3-1.1-4.3-2.6-6-4.5c-1.7-1.9-3-4-3.9-6.5c-0.9-2.4-1.4-5-1.4-7.6
			c0-2.7,0.5-5.3,1.4-7.8c0.9-2.5,2.2-4.6,3.8-6.5c1.6-1.9,3.5-3.3,5.7-4.5c2.2-1.1,4.6-1.7,7.2-1.7c1.7,0,3.3,0.3,4.8,0.8
			c1.5,0.5,2.9,1.2,4.2,2c1.3,0.8,2.5,1.8,3.5,2.9c1.1,1.1,2,2.3,2.7,3.5V13.5h3.8v49.8c0,1.3,0.5,1.9,1.6,1.9v3.4
			c-0.3,0-0.6,0.1-0.8,0.1c-0.2,0-0.4,0-0.6,0c-1,0-1.9-0.4-2.6-1.2c-0.7-0.8-1.1-1.6-1.1-2.5v-4.4c-1.6,2.6-3.8,4.7-6.5,6.3
			C414.1,68.5,411.3,69.3,408.4,69.3z M409.1,65.9c1.4,0,2.8-0.3,4.4-0.8c1.6-0.6,3-1.3,4.3-2.3c1.3-1,2.5-2.1,3.4-3.4
			c1-1.3,1.5-2.6,1.7-4.1V42.4c-0.6-1.4-1.3-2.8-2.4-4c-1-1.3-2.2-2.4-3.5-3.3c-1.3-0.9-2.7-1.7-4.2-2.2c-1.5-0.6-3-0.8-4.4-0.8
			c-2.3,0-4.3,0.5-6.2,1.5c-1.9,1-3.4,2.3-4.8,3.8c-1.3,1.6-2.3,3.4-3,5.4c-0.7,2-1.1,4.1-1.1,6.3c0,2.3,0.4,4.4,1.2,6.4
			c0.8,2,1.9,3.8,3.4,5.4c1.4,1.6,3.1,2.8,5,3.7C404.8,65.4,406.9,65.9,409.1,65.9z"/>
		<path class="st0" d="M443.2,81.8c0.3,0,0.6,0.1,1.1,0.1c0.5,0,1,0,1.4-0.1c0.4-0.1,0.8-0.2,1.2-0.4c0.3-0.2,0.6-0.4,0.8-0.6
			c0.3-0.3,0.6-0.8,1.1-1.7c0.5-0.9,1-2.1,1.7-3.8c0.7-1.7,1.7-3.9,2.9-6.8L436,29.3h3.9l15.6,35.5l14.6-35.5h3.7l-21.5,51.6
			c-0.6,1.4-1.4,2.5-2.7,3.3c-1.2,0.8-2.9,1.2-5,1.2c-0.2,0-0.4,0-0.6,0c-0.2,0-0.5,0-0.7-0.1V81.8z"/>
		<path class="st0" d="M484.3,68.5V15h3.8v50.1h32v3.5H484.3z"/>
		<path class="st0" d="M528.9,20.4v-6.9h3.8v6.9H528.9z M528.9,68.5V29.3h3.8v39.2H528.9z"/>
		<path class="st0" d="M558.9,69.3c-3,0-5.9-0.5-8.7-1.5c-2.8-1-5.2-2.5-7.2-4.5l1.9-2.6c2.1,1.9,4.3,3.3,6.6,4.2s4.8,1.4,7.5,1.4
			c3.4,0,6.2-0.7,8.3-2.2c2.1-1.4,3.1-3.4,3.1-6c0-1.2-0.3-2.2-0.8-3.1s-1.3-1.5-2.4-2.1s-2.4-1.1-3.9-1.5c-1.6-0.5-3.4-0.9-5.4-1.4
			c-2.2-0.5-4.1-1-5.8-1.5c-1.6-0.5-3-1.1-4-1.8c-1.1-0.7-1.8-1.6-2.4-2.6c-0.5-1-0.8-2.3-0.8-3.8c0-2,0.4-3.7,1.1-5.1
			c0.8-1.5,1.8-2.7,3.1-3.6c1.3-1,2.9-1.7,4.6-2.2c1.7-0.5,3.6-0.7,5.5-0.7c3.1,0,5.8,0.5,8.1,1.5c2.4,1,4.2,2.4,5.5,4l-2.1,2
			c-1.3-1.5-3-2.6-5.1-3.4c-2.1-0.8-4.3-1.1-6.7-1.1c-1.5,0-2.8,0.2-4.1,0.5c-1.3,0.3-2.4,0.8-3.4,1.4c-1,0.7-1.7,1.5-2.3,2.5
			c-0.6,1-0.8,2.3-0.8,3.7c0,1.2,0.2,2.1,0.6,2.8c0.4,0.7,1,1.3,1.8,1.8c0.8,0.5,1.9,0.9,3.2,1.3c1.3,0.4,2.9,0.8,4.7,1.2
			c2.5,0.6,4.7,1.2,6.6,1.7s3.5,1.2,4.8,2c1.3,0.8,2.3,1.8,2.9,2.9c0.7,1.1,1,2.5,1,4.2c0,3.5-1.4,6.3-4.1,8.4
			C567.1,68.3,563.5,69.3,558.9,69.3z"/>
		<path class="st0" d="M602.1,66.7c-0.2,0.1-0.5,0.3-1,0.6c-0.5,0.3-1.1,0.5-1.8,0.8c-0.7,0.3-1.5,0.5-2.5,0.7
			c-0.9,0.2-1.9,0.3-2.9,0.3c-1.1,0-2-0.2-3-0.5c-0.9-0.3-1.7-0.8-2.5-1.4c-0.7-0.6-1.3-1.3-1.7-2.2c-0.4-0.9-0.6-1.9-0.6-3V32.4
			h-5.5v-3.1h5.5V15.9h3.8v13.4h9.1v3.1H590v28.7c0,1.5,0.5,2.6,1.5,3.3c1,0.7,2.1,1.1,3.4,1.1c1.6,0,2.9-0.3,4-0.8
			c1.1-0.5,1.8-0.9,2.1-1L602.1,66.7z"/>
		<path class="st0" d="M632.8,78.4V10.1h3.4v68.3H632.8z"/>
		<path class="st0" d="M671.2,68.5V15H694c2.6,0,4.9,0.5,7.1,1.6c2.1,1.1,4,2.4,5.5,4.2c1.5,1.7,2.7,3.6,3.6,5.8
			c0.9,2.2,1.3,4.4,1.3,6.6c0,2.4-0.4,4.6-1.2,6.8c-0.8,2.2-2,4.1-3.5,5.8c-1.5,1.7-3.3,3.1-5.4,4.1c-2.1,1-4.5,1.5-7,1.5h-10.9
			v17.3H671.2z M683.5,40.5h10.1c1.5,0,2.7-0.6,3.8-1.9c1.1-1.3,1.6-3.1,1.6-5.5c0-1.3-0.2-2.3-0.5-3.2c-0.3-0.9-0.8-1.7-1.3-2.3
			c-0.6-0.6-1.2-1-1.9-1.3c-0.7-0.3-1.4-0.4-2.1-0.4h-9.7V40.5z"/>
		<path class="st0" d="M744.2,39.3c-2.9,0.1-5.6,0.5-7.9,1.4c-2.4,0.9-4.1,2.3-5.1,4.1v23.8h-12.1V28.9h11.1v8
			c1.4-2.7,3.1-4.8,5.2-6.3c2.1-1.5,4.4-2.3,6.8-2.3c0.6,0,1,0,1.2,0c0.3,0,0.5,0,0.8,0.1V39.3z"/>
		<path class="st0" d="M768,69.3c-3.4,0-6.4-0.6-9-1.7c-2.6-1.1-4.9-2.6-6.7-4.5c-1.8-1.9-3.2-4.1-4.1-6.6c-0.9-2.5-1.4-5.1-1.4-7.8
			s0.5-5.3,1.4-7.8c0.9-2.5,2.3-4.7,4.1-6.6c1.8-1.9,4-3.4,6.7-4.5c2.6-1.1,5.6-1.7,9-1.7c3.4,0,6.4,0.6,9,1.7
			c2.6,1.1,4.8,2.6,6.6,4.5c1.8,1.9,3.2,4.1,4.1,6.6c1,2.5,1.4,5.1,1.4,7.8s-0.5,5.3-1.4,7.8c-0.9,2.5-2.3,4.7-4.1,6.6
			c-1.8,1.9-4,3.4-6.7,4.5C774.4,68.7,771.4,69.3,768,69.3z M759.2,48.8c0,3.1,0.8,5.6,2.5,7.5c1.7,1.9,3.8,2.8,6.3,2.8
			c1.3,0,2.4-0.3,3.5-0.8c1.1-0.5,2-1.2,2.8-2.1c0.8-0.9,1.4-2,1.8-3.3c0.5-1.3,0.7-2.7,0.7-4.2c0-3.1-0.8-5.6-2.5-7.5
			c-1.7-1.9-3.7-2.8-6.3-2.8c-1.3,0-2.4,0.3-3.5,0.8c-1.1,0.5-2,1.2-2.8,2.1c-0.8,0.9-1.4,2-1.8,3.3
			C759.4,45.9,759.2,47.3,759.2,48.8z"/>
	</g>
	<linearGradient id="SVGID_1_" gradientUnits="userSpaceOnUse" x1="7.0491" y1="54.7161" x2="108.482" y2="54.7161">
		<stop  offset="0" style="stop-color:#1B75BB"/>
		<stop  offset="1" style="stop-color:#00ADEE"/>
	</linearGradient>
	<path class="st1" d="M105,54.1H94.3c-0.9,0-1.6-0.7-1.6-1.6v-3.3v-7.5c0-2.7-1.1-5.2-2.9-7c-1.8-1.8-4.3-2.9-7-2.9
		c-2.7,0-5.2,1.1-7,2.9c-1.8,1.8-2.9,4.3-2.9,7v9.7v23.1v0.1c0,0.8-0.3,1.5-0.8,2.1c-0.5,0.5-1.3,0.8-2.1,0.8
		c-0.8,0-1.5-0.3-2.1-0.8c-0.5-0.5-0.9-1.3-0.9-2.1v-2.4V37.1v-2.4c0-2.7-1.1-5.2-2.9-7c-1.8-1.8-4.3-2.9-7-2.9
		c-2.7,0-5.2,1.1-7,2.9c-1.8,1.8-2.9,4.3-2.9,7V42v10.7v16.1c0,0.8-0.3,1.5-0.9,2.1c-0.5,0.5-1.3,0.8-2,0.8c-0.8,0-1.5-0.3-2.1-0.8
		c-0.5-0.5-0.9-1.3-0.9-2.1v-3.8V51c0-2.7-1.1-5.2-2.9-7c-1.8-1.8-4.3-2.9-7-2.9c-2.7,0-5.2,1.1-7,2.9c-1.8,1.8-2.9,4.3-2.9,7v1.5
		c0,0.9-0.7,1.6-1.6,1.6h-9.3c-1.9,0-3.5,1.6-3.5,3.5c0,1.9,1.6,3.5,3.5,3.5h10.9c3.9,0,7-3.1,7-7V51c0-0.8,0.3-1.5,0.9-2
		c0.5-0.5,1.3-0.9,2-0.9c0.8,0,1.5,0.3,2.1,0.9c0.5,0.5,0.9,1.2,0.9,2v14v3.8c0,2.7,1.1,5.2,2.9,7c1.8,1.8,4.3,2.9,7,2.9
		c2.7,0,5.2-1.1,7-2.9c1.8-1.8,2.9-4.3,2.9-7V52.7V42v-7.2c0-0.8,0.3-1.5,0.9-2.1c0.5-0.5,1.3-0.9,2.1-0.9c0.8,0,1.5,0.3,2,0.9
		c0.5,0.5,0.9,1.2,0.9,2.1v2.4v35.2v2.4c0,2.7,1.1,5.2,2.9,7c1.8,1.8,4.3,2.9,7,2.9c2.7,0,5.2-1.1,7-2.9c1.8-1.8,2.9-4.3,2.9-7v-0.1
		V51.5v-9.7c0-0.8,0.3-1.5,0.9-2.1c0.5-0.5,1.3-0.9,2.1-0.9c0.8,0,1.5,0.3,2.1,0.9c0.5,0.5,0.8,1.2,0.8,2.1v10.9v1.4
		c0,3.9,3.1,7,7,7l0,0H105c1.9,0,3.5-1.6,3.5-3.5C108.5,55.6,106.9,54.1,105,54.1z"/>
	<g>
		
			<linearGradient id="SVGID_00000125564754241403615880000012866056075873544086_" gradientUnits="userSpaceOnUse" x1="-3.4041" y1="20.0712" x2="121.7125" y2="20.0712">
			<stop  offset="0" style="stop-color:#1B75BB"/>
			<stop  offset="1" style="stop-color:#00ADEE"/>
		</linearGradient>
		<path style="fill:url(#SVGID_00000125564754241403615880000012866056075873544086_);" d="M82.8,13.1c-3.9,0-7,3.1-7,7s3.1,7,7,7
			c3.9,0,7-3.1,7-7S86.7,13.1,82.8,13.1z"/>
		
			<linearGradient id="SVGID_00000150075613582058323020000004686608125892911547_" gradientUnits="userSpaceOnUse" x1="-3.4036" y1="13.0913" x2="121.7122" y2="13.0913">
			<stop  offset="0" style="stop-color:#1B75BB"/>
			<stop  offset="1" style="stop-color:#00ADEE"/>
		</linearGradient>
		<path style="fill:url(#SVGID_00000150075613582058323020000004686608125892911547_);" d="M56.7,6.1c-3.9,0-7,3.1-7,7
			c0,3.9,3.1,7,7,7s7-3.1,7-7C63.6,9.2,60.5,6.1,56.7,6.1z"/>
		
			<linearGradient id="SVGID_00000145737319418000768740000011460467578152836267_" gradientUnits="userSpaceOnUse" x1="-3.4037" y1="29.287" x2="121.7129" y2="29.287">
			<stop  offset="0" style="stop-color:#1B75BB"/>
			<stop  offset="1" style="stop-color:#00ADEE"/>
		</linearGradient>
		<path style="fill:url(#SVGID_00000145737319418000768740000011460467578152836267_);" d="M31.4,22.3c-3.9,0-7,3.1-7,7s3.1,7,7,7
			c3.9,0,7-3.1,7-7S35.3,22.3,31.4,22.3z"/>
	</g>
</g>
</svg>
