<?xml version="1.0" encoding="utf-8"?>
<!-- Generator: Adobe Illustrator 27.0.0, SVG Export Plug-In . SVG Version: 6.00 Build 0)  -->
<svg version="1.1" id="Layer_1" xmlns="http://www.w3.org/2000/svg" xmlns:xlink="http://www.w3.org/1999/xlink" x="0px" y="0px"
	 viewBox="0 0 800 430" style="enable-background:new 0 0 800 430;" xml:space="preserve">
<style type="text/css">
	.st0{fill:#FF5873;}
	.st1{fill:#2D02A7;}
	.st2{fill:#25BEEF;}
	.st3{fill:#FFFFFF;}
	.st4{fill:#CEEDFF;}
	.st5{fill:#0871F7;}
</style>
<g>
	<g>
		<circle class="st0" cx="587.2" cy="21.9" r="13.5"/>
	</g>
	<g>
		<path class="st1" d="M676.1,236.1c-0.3,0-0.5-0.2-0.6-0.5l-17.4-67.7c-11.5-44.6-51.6-75.7-97.7-75.7c-0.3,0-0.6-0.3-0.6-0.6
			c0-0.3,0.3-0.6,0.6-0.6c46.6,0,87.2,31.5,98.8,76.6l17.4,67.7c0.1,0.3-0.1,0.7-0.4,0.7C676.2,236.1,676.1,236.1,676.1,236.1z"/>
	</g>
	<g>
		<path class="st1" d="M721.9,197.4v-35.3c0-7.7-6.3-14-14-14H630c-0.3,0-0.6,0.3-0.6,0.6v226c0,0.3,0.3,0.6,0.6,0.6H708
			c0.3,0,0.6-0.3,0.6-0.6V362c7.4-0.3,13.4-6.5,13.4-14v-35.3c0-7.5-5.9-13.6-13.4-14v-12.2c7.4-0.3,13.4-6.5,13.4-14v-35.3
			c0-7.5-5.9-13.6-13.4-14v-12.2C716,211,721.9,204.9,721.9,197.4z"/>
		<g>
			<path class="st2" d="M636.7,286.1h53.6c17.1,0,31-13.9,31-31v0c0-17.1-13.9-31-31-31h-53.6V286.1z"/>
			<path class="st1" d="M708,286.7h-71.2c-0.3,0-0.6-0.3-0.6-0.6v-62c0-0.3,0.3-0.6,0.6-0.6H708c7.7,0,14,6.3,14,14v35.3
				C721.9,280.4,715.7,286.7,708,286.7z M637.3,285.5H708c7,0,12.8-5.7,12.8-12.8v-35.3c0-7-5.7-12.8-12.8-12.8h-70.6V285.5z"/>
		</g>
		<g>
			<path class="st2" d="M636.7,210.7h53.6c17.1,0,31-13.9,31-31v0c0-17.1-13.9-31-31-31h-53.6V210.7z"/>
			<path class="st1" d="M708,211.3h-71.2c-0.3,0-0.6-0.3-0.6-0.6v-62c0-0.3,0.3-0.6,0.6-0.6H708c7.7,0,14,6.3,14,14v35.3
				C721.9,205.1,715.7,211.3,708,211.3z M637.3,210.1H708c7,0,12.8-5.7,12.8-12.8v-35.3c0-7-5.7-12.8-12.8-12.8h-70.6V210.1z"/>
		</g>
		<g>
			<path class="st2" d="M636.7,361.4h53.6c17.1,0,31-13.9,31-31v0c0-17.1-13.9-31-31-31h-53.6V361.4z"/>
			<path class="st1" d="M708,362h-71.2c-0.3,0-0.6-0.3-0.6-0.6v-62c0-0.3,0.3-0.6,0.6-0.6H708c7.7,0,14,6.3,14,14V348
				C721.9,355.7,715.7,362,708,362z M637.3,360.8H708c7,0,12.8-5.7,12.8-12.8v-35.3c0-7-5.7-12.8-12.8-12.8h-70.6V360.8z"/>
		</g>
		<g>
			<g>
				<path class="st3" d="M527.4,210.7h91.7c17.1,0,31-13.9,31-31v0c0-17.1-13.9-31-31-31h-91.7c-17.1,0-31,13.9-31,31v0
					C496.4,196.9,510.3,210.7,527.4,210.7z"/>
				<path class="st1" d="M636.7,211.3H509.8c-7.7,0-14-6.3-14-14v-35.3c0-7.7,6.3-14,14-14h126.9c7.7,0,14,6.3,14,14v35.3
					C650.7,205.1,644.4,211.3,636.7,211.3z M509.8,149.4c-7,0-12.8,5.7-12.8,12.8v35.3c0,7,5.7,12.8,12.8,12.8h126.9
					c7,0,12.8-5.7,12.8-12.8v-35.3c0-7-5.7-12.8-12.8-12.8H509.8z"/>
			</g>
			<g>
				<path class="st3" d="M527.4,286.1h91.7c17.1,0,31-13.9,31-31v0c0-17.1-13.9-31-31-31h-91.7c-17.1,0-31,13.9-31,31v0
					C496.4,272.2,510.3,286.1,527.4,286.1z"/>
				<path class="st1" d="M636.7,286.7H509.8c-7.7,0-14-6.3-14-14v-35.3c0-7.7,6.3-14,14-14h126.9c7.7,0,14,6.3,14,14v35.3
					C650.7,280.4,644.4,286.7,636.7,286.7z M509.8,224.7c-7,0-12.8,5.7-12.8,12.8v35.3c0,7,5.7,12.8,12.8,12.8h126.9
					c7,0,12.8-5.7,12.8-12.8v-35.3c0-7-5.7-12.8-12.8-12.8H509.8z"/>
			</g>
			<g>
				<path class="st3" d="M527.4,361.4h91.7c17.1,0,31-13.9,31-31v0c0-17.1-13.9-31-31-31h-91.7c-17.1,0-31,13.9-31,31v0
					C496.4,347.5,510.3,361.4,527.4,361.4z"/>
				<path class="st1" d="M636.7,362H509.8c-7.7,0-14-6.3-14-14v-35.3c0-7.7,6.3-14,14-14h126.9c7.7,0,14,6.3,14,14V348
					C650.7,355.7,644.4,362,636.7,362z M509.8,300c-7,0-12.8,5.7-12.8,12.8V348c0,7,5.7,12.8,12.8,12.8h126.9
					c7,0,12.8-5.7,12.8-12.8v-35.3c0-7-5.7-12.8-12.8-12.8H509.8z"/>
			</g>
			<g>
				<circle class="st2" cx="626.7" cy="192.2" r="2.7"/>
			</g>
			<g>
				<circle class="st2" cx="620" cy="185.5" r="2.7"/>
			</g>
			<g>
				<circle class="st2" cx="626.7" cy="178.8" r="2.7"/>
			</g>
			<g>
				<circle class="st2" cx="613.3" cy="192.2" r="2.7"/>
			</g>
			<g>
				<circle class="st2" cx="613.3" cy="178.8" r="2.7"/>
			</g>
			<g>
				<circle class="st2" cx="620" cy="172.1" r="2.7"/>
			</g>
			<g>
				<circle class="st2" cx="626.7" cy="165.4" r="2.7"/>
			</g>
			<g>
				<circle class="st2" cx="613.3" cy="165.4" r="2.7"/>
			</g>
			<g>
				<circle class="st2" cx="606.6" cy="185.5" r="2.7"/>
			</g>
			<g>
				<circle class="st2" cx="600" cy="192.2" r="2.7"/>
			</g>
			<g>
				<circle class="st2" cx="600" cy="178.8" r="2.7"/>
			</g>
			<g>
				<circle class="st2" cx="606.6" cy="172.1" r="2.7"/>
			</g>
			<g>
				<circle class="st2" cx="600" cy="165.4" r="2.7"/>
			</g>
			<g>
				<circle class="st2" cx="593.3" cy="185.5" r="2.7"/>
			</g>
			<g>
				<circle class="st2" cx="586.6" cy="192.2" r="2.7"/>
			</g>
			<g>
				<circle class="st2" cx="586.6" cy="178.8" r="2.7"/>
			</g>
			<g>
				<circle class="st2" cx="593.3" cy="172.1" r="2.7"/>
			</g>
			<g>
				<circle class="st2" cx="586.6" cy="165.4" r="2.7"/>
			</g>
			<g>
				<circle class="st2" cx="579.9" cy="185.5" r="2.7"/>
			</g>
			<g>
				<circle class="st2" cx="573.2" cy="192.2" r="2.7"/>
			</g>
			<g>
				<circle class="st2" cx="573.2" cy="178.8" r="2.7"/>
			</g>
			<g>
				<circle class="st2" cx="579.9" cy="172.1" r="2.7"/>
			</g>
			<g>
				<circle class="st2" cx="573.2" cy="165.4" r="2.7"/>
			</g>
			<g>
				<circle class="st2" cx="626.7" cy="267.5" r="2.7"/>
			</g>
			<g>
				<circle class="st2" cx="620" cy="260.8" r="2.7"/>
			</g>
			<g>
				<circle class="st2" cx="626.7" cy="254.1" r="2.7"/>
			</g>
			<g>
				<circle class="st2" cx="613.3" cy="267.5" r="2.7"/>
			</g>
			<g>
				<circle class="st2" cx="613.3" cy="254.1" r="2.7"/>
			</g>
			<g>
				<circle class="st2" cx="620" cy="247.5" r="2.7"/>
			</g>
			<g>
				<circle class="st2" cx="626.7" cy="240.8" r="2.7"/>
			</g>
			<g>
				<circle class="st2" cx="613.3" cy="240.8" r="2.7"/>
			</g>
			<g>
				<circle class="st2" cx="606.6" cy="260.8" r="2.7"/>
			</g>
			<g>
				<circle class="st2" cx="600" cy="267.5" r="2.7"/>
			</g>
			<g>
				<circle class="st2" cx="600" cy="254.1" r="2.7"/>
			</g>
			<g>
				<circle class="st2" cx="606.6" cy="247.5" r="2.7"/>
			</g>
			<g>
				<circle class="st2" cx="600" cy="240.8" r="2.7"/>
			</g>
			<g>
				<circle class="st2" cx="593.3" cy="260.8" r="2.7"/>
			</g>
			<g>
				<circle class="st2" cx="586.6" cy="267.5" r="2.7"/>
			</g>
			<g>
				<circle class="st2" cx="586.6" cy="254.1" r="2.7"/>
			</g>
			<g>
				<circle class="st2" cx="593.3" cy="247.5" r="2.7"/>
			</g>
			<g>
				<circle class="st2" cx="586.6" cy="240.8" r="2.7"/>
			</g>
			<g>
				<circle class="st2" cx="579.9" cy="260.8" r="2.7"/>
			</g>
			<g>
				<circle class="st2" cx="573.2" cy="267.5" r="2.7"/>
			</g>
			<g>
				<circle class="st2" cx="573.2" cy="254.1" r="2.7"/>
			</g>
			<g>
				<circle class="st2" cx="579.9" cy="247.5" r="2.7"/>
			</g>
			<g>
				<circle class="st2" cx="573.2" cy="240.8" r="2.7"/>
			</g>
			<g>
				<circle class="st2" cx="626.7" cy="342.8" r="2.7"/>
			</g>
			<g>
				<circle class="st2" cx="620" cy="336.2" r="2.7"/>
			</g>
			<g>
				<circle class="st2" cx="626.7" cy="329.5" r="2.7"/>
			</g>
			<g>
				<circle class="st2" cx="613.3" cy="342.8" r="2.7"/>
			</g>
			<g>
				<circle class="st2" cx="613.3" cy="329.5" r="2.7"/>
			</g>
			<g>
				<circle class="st2" cx="620" cy="322.8" r="2.7"/>
			</g>
			<g>
				<circle class="st2" cx="626.7" cy="316.1" r="2.7"/>
			</g>
			<g>
				<circle class="st2" cx="613.3" cy="316.1" r="2.7"/>
			</g>
			<g>
				<circle class="st2" cx="606.6" cy="336.2" r="2.7"/>
			</g>
			<g>
				<circle class="st2" cx="600" cy="342.8" r="2.7"/>
			</g>
			<g>
				<circle class="st2" cx="600" cy="329.5" r="2.7"/>
			</g>
			<g>
				<circle class="st2" cx="606.6" cy="322.8" r="2.7"/>
			</g>
			<g>
				<circle class="st2" cx="600" cy="316.1" r="2.7"/>
			</g>
			<g>
				<circle class="st2" cx="593.3" cy="336.2" r="2.7"/>
			</g>
			<g>
				<circle class="st2" cx="586.6" cy="342.8" r="2.7"/>
			</g>
			<g>
				<circle class="st2" cx="586.6" cy="329.5" r="2.7"/>
			</g>
			<g>
				<circle class="st2" cx="593.3" cy="322.8" r="2.7"/>
			</g>
			<g>
				<circle class="st2" cx="586.6" cy="316.1" r="2.7"/>
			</g>
			<g>
				<circle class="st2" cx="579.9" cy="336.2" r="2.7"/>
			</g>
			<g>
				<circle class="st2" cx="573.2" cy="342.8" r="2.7"/>
			</g>
			<g>
				<circle class="st2" cx="573.2" cy="329.5" r="2.7"/>
			</g>
			<g>
				<circle class="st2" cx="579.9" cy="322.8" r="2.7"/>
			</g>
			<g>
				<circle class="st2" cx="573.2" cy="316.1" r="2.7"/>
			</g>
			<g>
				<path class="st2" d="M519.8,342.8L519.8,342.8c1.5,0,2.7-1.2,2.7-2.7v-21.4c0-1.5-1.2-2.7-2.7-2.7l0,0c-1.5,0-2.7,1.2-2.7,2.7
					v21.4C517.1,341.6,518.3,342.8,519.8,342.8z"/>
			</g>
			<g>
				<path class="st2" d="M533.2,342.8L533.2,342.8c1.5,0,2.7-1.2,2.7-2.7v-21.4c0-1.5-1.2-2.7-2.7-2.7l0,0c-1.5,0-2.7,1.2-2.7,2.7
					v21.4C530.5,341.6,531.7,342.8,533.2,342.8z"/>
			</g>
			<g>
				<path class="st2" d="M519.8,267.5L519.8,267.5c1.5,0,2.7-1.2,2.7-2.7v-21.4c0-1.5-1.2-2.7-2.7-2.7l0,0c-1.5,0-2.7,1.2-2.7,2.7
					v21.4C517.1,266.3,518.3,267.5,519.8,267.5z"/>
			</g>
			<g>
				<path class="st2" d="M533.2,267.5L533.2,267.5c1.5,0,2.7-1.2,2.7-2.7v-21.4c0-1.5-1.2-2.7-2.7-2.7l0,0c-1.5,0-2.7,1.2-2.7,2.7
					v21.4C530.5,266.3,531.7,267.5,533.2,267.5z"/>
			</g>
			<g>
				<path class="st2" d="M519.8,192.2L519.8,192.2c1.5,0,2.7-1.2,2.7-2.7v-21.4c0-1.5-1.2-2.7-2.7-2.7l0,0c-1.5,0-2.7,1.2-2.7,2.7
					v21.4C517.1,191,518.3,192.2,519.8,192.2z"/>
			</g>
			<g>
				<path class="st2" d="M533.2,192.2L533.2,192.2c1.5,0,2.7-1.2,2.7-2.7v-21.4c0-1.5-1.2-2.7-2.7-2.7l0,0c-1.5,0-2.7,1.2-2.7,2.7
					v21.4C530.5,191,531.7,192.2,533.2,192.2z"/>
			</g>
		</g>
		<g>
			<rect x="512.6" y="361.4" class="st2" width="129.7" height="13.4"/>
			<path class="st1" d="M642.2,375.4H512.6c-0.3,0-0.6-0.3-0.6-0.6v-13.4c0-0.3,0.3-0.6,0.6-0.6h129.7c0.3,0,0.6,0.3,0.6,0.6v13.4
				C642.8,375.1,642.6,375.4,642.2,375.4z M513.2,374.2h128.5V362H513.2V374.2z"/>
		</g>
		<g>
			<rect x="512.6" y="286.1" class="st2" width="129.7" height="13.4"/>
			<path class="st1" d="M642.2,300H512.6c-0.3,0-0.6-0.3-0.6-0.6v-13.4c0-0.3,0.3-0.6,0.6-0.6h129.7c0.3,0,0.6,0.3,0.6,0.6v13.4
				C642.8,299.8,642.6,300,642.2,300z M513.2,298.8h128.5v-12.2H513.2V298.8z"/>
		</g>
		<g>
			<rect x="512.6" y="210.7" class="st2" width="129.7" height="13.4"/>
			<path class="st1" d="M642.2,224.7H512.6c-0.3,0-0.6-0.3-0.6-0.6v-13.4c0-0.3,0.3-0.6,0.6-0.6h129.7c0.3,0,0.6,0.3,0.6,0.6v13.4
				C642.8,224.4,642.6,224.7,642.2,224.7z M513.2,223.5h128.5v-12.2H513.2V223.5z"/>
		</g>
	</g>
	<g>
		<g>
			<path class="st2" d="M220.8,374.8h31.5c30.7-42.5,46.1-98.3,46.1-154.1c0-55.9-15.4-111.7-46.1-154.4
				C242,76.6,233.4,88,226.5,100l0,0c-13.2-2.4-29.8-2.4-43.1,0l0,0c-6.8-12-15.4-23.4-25.7-33.7c-30.8,42.7-46.1,98.5-46.1,154.4
				c0,55.7,15.4,111.5,46.1,154.1h31.5H220.8z"/>
			<path class="st1" d="M252.3,375.4h-94.5c-0.2,0-0.4-0.1-0.5-0.2c-29.8-41.3-46.2-96.1-46.2-154.4c0-58.4,16.4-113.4,46.2-154.7
				c0.1-0.1,0.3-0.2,0.4-0.2c0.2,0,0.3,0,0.5,0.2c10,10.1,18.6,21.4,25.5,33.4c13.1-2.3,29.3-2.3,42.4,0
				c6.9-12.1,15.6-23.4,25.6-33.5c0.1-0.1,0.3-0.2,0.5-0.2c0.2,0,0.3,0.1,0.4,0.2c29.8,41.3,46.2,96.3,46.2,154.7
				c0,58.3-16.4,113.1-46.2,154.4C252.7,375.3,252.5,375.4,252.3,375.4z M158.1,374.2H252c29.6-41.1,45.8-95.5,45.8-153.5
				c0-57.9-16.2-112.4-45.6-153.4c-9.9,10-18.3,21.1-25.1,33.1c-0.1,0.2-0.4,0.3-0.6,0.3c-13.2-2.4-29.6-2.4-42.8,0
				c-0.2,0-0.5-0.1-0.6-0.3c-6.8-11.9-15.2-23-25.1-33.1c-29.4,41.1-45.6,95.5-45.6,153.4C112.3,278.6,128.6,333.1,158.1,374.2z"/>
		</g>
		<g>
			<circle class="st3" cx="231.7" cy="153.2" r="14.2"/>
		</g>
		<g>
			<circle class="st3" cx="178.4" cy="153.2" r="14.2"/>
		</g>
		<g>
			<path class="st1" d="M231.7,168c-8.1,0-14.8-6.6-14.8-14.8c0-8.1,6.6-14.8,14.8-14.8c8.1,0,14.8,6.6,14.8,14.8
				C246.5,161.4,239.8,168,231.7,168z M231.7,139.6c-7.5,0-13.6,6.1-13.6,13.6c0,7.5,6.1,13.6,13.6,13.6c7.5,0,13.6-6.1,13.6-13.6
				C245.2,145.7,239.2,139.6,231.7,139.6z"/>
		</g>
		<g>
			<path class="st1" d="M178.4,168c-8.1,0-14.8-6.6-14.8-14.8c0-8.1,6.6-14.8,14.8-14.8s14.8,6.6,14.8,14.8
				C193.1,161.4,186.5,168,178.4,168z M178.4,139.6c-7.5,0-13.6,6.1-13.6,13.6c0,7.5,6.1,13.6,13.6,13.6s13.6-6.1,13.6-13.6
				C191.9,145.7,185.8,139.6,178.4,139.6z"/>
		</g>
		<g>
			<circle class="st1" cx="236.2" cy="158.6" r="3.8"/>
		</g>
		<g>
			<circle class="st1" cx="182.9" cy="158.6" r="3.8"/>
		</g>
		<g>
			<path class="st1" d="M152.4,107l14.1-2.1c1.2-0.2,1.8-1.5,1.2-2.6l-7-11c-0.7-1.1-2.3-1-2.9,0.1l-7,13.1
				C150.1,105.8,151.1,107.2,152.4,107z"/>
		</g>
		<g>
			<path class="st1" d="M243.5,105l14.1,2.1c1.4,0.2,2.4-1.2,1.7-2.4l-7-13.1c-0.6-1.1-2.2-1.2-2.9-0.1l-7,11
				C241.7,103.4,242.3,104.8,243.5,105z"/>
		</g>
		<g>
			<path class="st2" d="M65.6,307.3c0,25.1,9.7,48.4,25.8,67.5h66.4c-30.7-42.5-46.1-98.3-46.1-154.1
				C83.4,242,65.6,272.9,65.6,307.3z"/>
			<path class="st1" d="M157.8,375.4H91.5c-0.2,0-0.3-0.1-0.5-0.2c-17-20-26-43.5-26-67.9c0-33.2,16.9-65,46.3-87.1
				c0.2-0.1,0.4-0.2,0.6-0.1c0.2,0.1,0.3,0.3,0.3,0.5c0,58,16.3,112.6,46,153.7c0.1,0.2,0.2,0.4,0,0.6S158,375.4,157.8,375.4z
				 M91.7,374.2h64.9c-29.2-40.9-45.3-94.9-45.6-152.2c-28.5,21.9-44.8,52.9-44.8,85.4C66.2,331.3,75.1,354.4,91.7,374.2z"/>
		</g>
		<g>
			<path class="st1" d="M225.6,375.4h-41.1c-0.3,0-0.6-0.3-0.6-0.6V300c0-4.4,1.7-8.5,4.7-11.5c0.7-0.7,1.6-1.4,2.6-2.1
				c0.3-0.2,0.7-0.1,0.8,0.2c0.2,0.3,0.1,0.7-0.2,0.8c-1,0.6-1.8,1.3-2.4,2c-2.8,2.8-4.4,6.6-4.4,10.7v74.1H225V300
				c0-5.1-2.6-9.8-6.8-12.6c-0.3-0.2-0.4-0.6-0.2-0.8c0.2-0.3,0.6-0.3,0.8-0.2c4.6,3.1,7.4,8.2,7.4,13.6v74.7
				C226.2,375.1,226,375.4,225.6,375.4z"/>
		</g>
		<g>
			<path class="st1" d="M205,206.8c-6,0-11.9-1.6-17.2-4.8c-0.3-0.2-0.4-0.5-0.2-0.8c0.2-0.3,0.5-0.4,0.8-0.2
				c10.3,6.1,23,6.1,33.2,0c0.3-0.2,0.7-0.1,0.8,0.2c0.2,0.3,0.1,0.7-0.2,0.8C216.9,205.2,211,206.8,205,206.8z"/>
		</g>
		<g>
			<g>
				<path class="st2" d="M38.2,374.8h81.4c21.7,0,39.4-17.7,39.4-39.4s-17.7-39.4-39.4-39.4c-7.3,0-13.3,6-13.3,13.3
					s6,13.3,13.3,13.3c7.1,0,12.8,5.7,12.8,12.8c0,7.1-5.7,12.8-12.8,12.8H38.2c-7.3,0-13.3,6-13.3,13.3S30.9,374.8,38.2,374.8z"/>
			</g>
			<g>
				<path class="st3" d="M106.4,309.2c0,7.3,5.9,13.3,13.3,13.3c7.1,0,12.8,5.8,12.8,12.8c0-7.3,5.9-13.3,13.3-13.3
					s13.3,6,13.3,13.3c0-21.7-17.7-39.4-39.4-39.4C112.3,295.9,106.4,301.9,106.4,309.2z"/>
				<path class="st1" d="M159.1,335.9c-0.3,0-0.6-0.3-0.6-0.6c0-7-5.7-12.7-12.7-12.7c-7,0-12.7,5.7-12.7,12.7
					c0,0.3-0.3,0.6-0.6,0.6c-0.3,0-0.6-0.3-0.6-0.6c0-6.7-5.5-12.2-12.2-12.2c-7.7,0-13.9-6.2-13.9-13.9c0-7.7,6.2-13.9,13.9-13.9
					c22.1,0,40,18,40,40C159.7,335.7,159.4,335.9,159.1,335.9z M119.7,296.5c-7,0-12.7,5.7-12.7,12.7c0,7,5.7,12.7,12.7,12.7
					c6,0,11.1,4,12.8,9.4c1.7-5.7,7-9.9,13.3-9.9c5.2,0,9.7,2.9,12.1,7.1C154.6,310.3,138.7,296.5,119.7,296.5z"/>
			</g>
			<g>
				<path class="st1" d="M119.7,375.4H38.2c-7.7,0-13.9-6.2-13.9-13.9s6.2-13.9,13.9-13.9h81.4c6.7,0,12.2-5.5,12.2-12.2
					s-5.5-12.2-12.2-12.2c-7.7,0-13.9-6.2-13.9-13.9s6.2-13.9,13.9-13.9c22.1,0,40,18,40,40C159.7,357.4,141.8,375.4,119.7,375.4z
					 M38.2,348.7c-7,0-12.7,5.7-12.7,12.7s5.7,12.7,12.7,12.7h81.4c21.4,0,38.8-17.4,38.8-38.8s-17.4-38.8-38.8-38.8
					c-7,0-12.7,5.7-12.7,12.7s5.7,12.7,12.7,12.7c7.4,0,13.4,6,13.4,13.4c0,7.4-6,13.4-13.4,13.4H38.2z"/>
			</g>
		</g>
		<g>
			<polygon class="st3" points="217.7,186.6 219.1,178.9 216.2,178.9 			"/>
		</g>
		<g>
			<polygon class="st3" points="192.4,186.6 191,178.9 193.8,178.9 			"/>
		</g>
		<g>
			<path class="st2" d="M245.3,149.5c-7.5-2.9-19.7-2.9-27.2,0c1.6-6,7.1-10.4,13.6-10.4C238.2,139,243.6,143.5,245.3,149.5z"/>
			<path class="st1" d="M245.3,150.1c-0.1,0-0.1,0-0.2,0c-7.4-2.8-19.4-2.8-26.8,0c-0.2,0.1-0.5,0-0.6-0.1c-0.2-0.2-0.2-0.4-0.2-0.6
				c1.8-6.4,7.6-10.9,14.2-10.9c6.6,0,12.4,4.5,14.2,10.9c0.1,0.2,0,0.5-0.2,0.6C245.6,150,245.4,150.1,245.3,150.1z M231.7,139.6
				c-5.7,0-10.7,3.6-12.7,8.9c7.3-2.4,18.1-2.4,25.3,0C242.4,143.2,237.3,139.6,231.7,139.6z"/>
		</g>
		<g>
			<path class="st2" d="M192,149.5c-7.5-2.9-19.7-2.9-27.2,0c1.6-6,7.1-10.4,13.6-10.4S190.3,143.5,192,149.5z"/>
			<path class="st1" d="M192,150.1c-0.1,0-0.1,0-0.2,0c-7.4-2.8-19.4-2.8-26.8,0c-0.2,0.1-0.4,0-0.6-0.1c-0.2-0.2-0.2-0.4-0.2-0.6
				c1.8-6.4,7.6-10.9,14.2-10.9s12.4,4.5,14.2,10.9c0.1,0.2,0,0.5-0.2,0.6C192.3,150,192.1,150.1,192,150.1z M178.4,146.7
				c4.5,0,9,0.6,12.7,1.8c-2-5.3-7-8.9-12.7-8.9s-10.7,3.6-12.7,8.9C169.3,147.3,173.8,146.7,178.4,146.7z"/>
		</g>
		<path class="st1" d="M248.6,173.5c-0.2-0.3-0.5-0.4-0.8-0.2c-13,7.8-29.1,7.8-42.1,0.2v-3.4c2.6-0.9,5.2-3.5,5.9-6
			c-3.6-3.5-9.4-3.5-13,0c0.7,2.6,3.2,5.1,5.9,6v3.3c-13,7.7-29.2,7.7-42.2-0.1c-0.3-0.2-0.7-0.1-0.8,0.2c-0.2,0.3-0.1,0.7,0.2,0.8
			c6.7,4,14.3,6,21.8,6c7.4,0,14.9-2,21.5-5.9c6.7,3.9,14.1,5.9,21.5,5.9c7.6,0,15.1-2,21.8-6C248.7,174.1,248.8,173.8,248.6,173.5z
			"/>
	</g>
	<g>
		<path class="st1" d="M749,375.4H5.6c-0.3,0-0.6-0.3-0.6-0.6s0.3-0.6,0.6-0.6H749c0.3,0,0.6,0.3,0.6,0.6S749.3,375.4,749,375.4z"/>
	</g>
	<path class="st1" d="M748.4,239.3h-27.1c-0.3,0-0.6,0.3-0.6,0.6s0.3,0.6,0.6,0.6h27.1c25,0,45.4,20.4,45.4,45.4
		c0,25-20.4,45.4-45.4,45.4h-53.2c-0.3,0-0.6,0.3-0.6,0.6c0,0.3,0.3,0.6,0.6,0.6h53.2c25.7,0,46.6-20.9,46.6-46.6
		C795,260.1,774.1,239.3,748.4,239.3z"/>
	<g>
		<path class="st1" d="M688.4,340.7c-4.1,0-7.4-4-7.4-8.9c0-4.9,3.3-8.9,7.4-8.9c4.1,0,7.4,4,7.4,8.9
			C695.8,336.7,692.5,340.7,688.4,340.7z M688.4,324.2c-3.4,0-6.1,3.4-6.1,7.7c0,4.2,2.8,7.7,6.1,7.7c3.4,0,6.2-3.4,6.2-7.7
			C694.6,327.6,691.8,324.2,688.4,324.2z"/>
	</g>
	<g>
		<ellipse class="st1" cx="688.4" cy="331.8" rx="3.7" ry="4.5"/>
	</g>
	<g>
		<path class="st4" d="M373.3,340.7L373.3,340.7c-21.3,0-38.6-17.3-38.6-38.6v0c0-21.3,17.3-38.6,38.6-38.6h0
			c21.3,0,38.6,17.3,38.6,38.6v0C411.9,323.5,394.6,340.7,373.3,340.7z"/>
	</g>
	<g>
		<path class="st3" d="M373.3,326.3L373.3,326.3c-13.3,0-24.2-10.8-24.2-24.2v0c0-13.3,10.8-24.2,24.2-24.2h0
			c13.3,0,24.2,10.8,24.2,24.2v0C397.4,315.5,386.6,326.3,373.3,326.3z"/>
		<path class="st1" d="M373.3,326.9c-13.6,0-24.8-11.1-24.8-24.8c0-13.7,11.1-24.8,24.8-24.8c13.6,0,24.8,11.1,24.8,24.8
			C398,315.8,386.9,326.9,373.3,326.9z M373.3,278.6c-13,0-23.5,10.6-23.5,23.6c0,13,10.6,23.5,23.5,23.5s23.5-10.6,23.5-23.5
			C396.8,289.2,386.3,278.6,373.3,278.6z"/>
	</g>
	<g>
		<path class="st1" d="M365.9,311c-0.3,0-0.6-0.3-0.6-0.6v-16.5c0-0.3,0.3-0.6,0.6-0.6c0.3,0,0.6,0.3,0.6,0.6v16.5
			C366.5,310.7,366.2,311,365.9,311z"/>
	</g>
	<g>
		<path class="st1" d="M380.7,311c-0.3,0-0.6-0.3-0.6-0.6v-16.5c0-0.3,0.3-0.6,0.6-0.6c0.3,0,0.6,0.3,0.6,0.6v16.5
			C381.3,310.7,381,311,380.7,311z"/>
	</g>
	<polygon class="st2" points="387.4,235.6 377.7,235.6 377.7,216.1 363.1,240.4 372.8,240.4 372.8,259.9 	"/>
	<polygon class="st2" points="402.6,246.2 387.7,254.5 392.7,257.4 386.9,267.5 401.8,259.2 396.7,256.3 	"/>
	<polygon class="st2" points="361.4,251.9 356.3,254.9 350.5,244.7 350.2,261.8 355.2,258.8 361.1,269 	"/>
	<g>
		<path class="st1" d="M178,179.8c-7.1,5.4-12.5,13.2-14.9,22.4l-6.6,25.4c-0.1,0.3,0.1,0.7,0.4,0.7c0.3,0.1,0.7-0.1,0.7-0.4
			l6.6-25.4c2.4-9.4,8.1-17.2,15.6-22.6C179.3,179.9,178.6,179.9,178,179.8z"/>
		<path class="st1" d="M560.4,91c-47.8,0-89.8,33.9-99.8,80.7l-40.5,189.5c-7.3,34.3-38.1,59.2-73.2,59.2
			c-35.8,0-66.7-25.5-73.5-60.6l-30.1-155.1c-2-10.1-7.5-18.7-15.2-24.6c-0.6,0-1.2,0.1-1.9,0.1c8,5.8,13.9,14.5,15.9,24.8
			L272.3,360c6.9,35.7,38.3,61.6,74.7,61.6c35.6,0,66.9-25.3,74.4-60.2L461.8,172c9.9-46.2,51.4-79.8,98.6-79.8
			c0.3,0,0.6-0.3,0.6-0.6C561,91.3,560.7,91,560.4,91z"/>
	</g>
	<g>
		<path class="st3" d="M157.2,227.2c-6.6-1.3-12.9,3.1-14.2,9.6l-1.9,9.8l23.8,4.6l1.9-9.8C168.1,234.8,163.7,228.5,157.2,227.2z"/>
		<path class="st1" d="M168,251.1l-2.3-0.4l1.8-9.2c1.3-6.9-3.2-13.6-10.1-14.9c-6.9-1.3-13.6,3.2-14.9,10.1l-1.8,9.2l-2.3-0.4
			c-0.3,0-0.6,0.2-0.7,0.5c-0.1,0.3,0.2,0.6,0.5,0.7l8.5,1.6l-2.2,11.6c-0.1,0.3,0.2,0.6,0.5,0.7c0,0,0.1,0,0.1,0
			c0.3,0,0.5-0.2,0.6-0.5l2.2-11.6l5.2,1l5.2,1l-2.2,11.6c-0.1,0.3,0.2,0.6,0.5,0.7c0,0,0.1,0,0.1,0c0.3,0,0.5-0.2,0.6-0.5l2.2-11.6
			l5.5,1.1c0,0,0,0,0,0l2.9,0.6c0,0,0.1,0,0.1,0c0.3,0,0.5-0.2,0.6-0.5C168.5,251.5,168.3,251.2,168,251.1z M143.6,237
			c1.2-6.2,7.3-10.4,13.5-9.2c6.2,1.2,10.4,7.2,9.2,13.5l-1.8,9.2l-8.1-1.5l-14.6-2.8L143.6,237z"/>
	</g>
	<g>
		<g>
			<path class="st5" d="M587.2,119.9c-2.1,0-3.7-1.7-3.7-3.7s1.7-3.7,3.7-3.7c2.1,0,3.7,1.7,3.7,3.7S589.2,119.9,587.2,119.9z
				 M587.2,113.6c-1.4,0-2.5,1.1-2.5,2.5c0,1.4,1.1,2.5,2.5,2.5c1.4,0,2.5-1.1,2.5-2.5C589.7,114.7,588.6,113.6,587.2,113.6z"/>
		</g>
		<g>
			<path class="st5" d="M587.2,75.5c-2.1,0-3.7-1.7-3.7-3.7s1.7-3.7,3.7-3.7c2.1,0,3.7,1.7,3.7,3.7S589.2,75.5,587.2,75.5z
				 M587.2,69.2c-1.4,0-2.5,1.1-2.5,2.5s1.1,2.5,2.5,2.5c1.4,0,2.5-1.1,2.5-2.5S588.6,69.2,587.2,69.2z"/>
		</g>
		<g>
			<path class="st5" d="M587.2,113.6c-0.3,0-0.6-0.3-0.6-0.6V74.9c0-0.3,0.3-0.6,0.6-0.6s0.6,0.3,0.6,0.6V113
				C587.8,113.3,587.5,113.6,587.2,113.6z"/>
		</g>
		<g>
			<path class="st3" d="M587.2,108.3L587.2,108.3c-2.9,0-5.3-2.4-5.3-5.3V84.8c0-2.9,2.4-5.3,5.3-5.3l0,0c2.9,0,5.3,2.4,5.3,5.3V103
				C592.4,105.9,590.1,108.3,587.2,108.3z"/>
			<path class="st5" d="M587.2,108.9c-3.2,0-5.9-2.6-5.9-5.9V84.8c0-3.2,2.6-5.9,5.9-5.9s5.9,2.6,5.9,5.9V103
				C593,106.3,590.4,108.9,587.2,108.9z M587.2,80.2c-2.6,0-4.7,2.1-4.7,4.7V103c0,2.6,2.1,4.7,4.7,4.7s4.7-2.1,4.7-4.7V84.8
				C591.8,82.3,589.8,80.2,587.2,80.2z"/>
		</g>
	</g>
	<g>
		<path class="st5" d="M587.2,142.6c-0.3,0-0.6-0.3-0.6-0.6v-16.2c0-0.3,0.3-0.6,0.6-0.6s0.6,0.3,0.6,0.6V142
			C587.8,142.3,587.5,142.6,587.2,142.6z"/>
	</g>
	<g>
		<path class="st5" d="M587.2,63.1c-0.3,0-0.6-0.3-0.6-0.6v-21c0-0.3,0.3-0.6,0.6-0.6s0.6,0.3,0.6,0.6v21
			C587.8,62.8,587.5,63.1,587.2,63.1z"/>
	</g>
	<g>
		<g>
			<path class="st3" d="M581.4,28.3c-0.2,0-0.3-0.1-0.4-0.2c-0.2-0.2-0.2-0.6,0-0.9l11.6-11.6c0.2-0.2,0.6-0.2,0.9,0
				c0.2,0.2,0.2,0.6,0,0.9l-11.6,11.6C581.7,28.2,581.5,28.3,581.4,28.3z"/>
		</g>
		<g>
			<path class="st3" d="M593,28.3c-0.2,0-0.3-0.1-0.4-0.2L581,16.5c-0.2-0.2-0.2-0.6,0-0.9c0.2-0.2,0.6-0.2,0.9,0l11.6,11.6
				c0.2,0.2,0.2,0.6,0,0.9C593.3,28.2,593.1,28.3,593,28.3z"/>
		</g>
	</g>
	<g>
		<path class="st5" d="M616.5,46.7L601.2,62c-0.1,0.1-0.2,0.3-0.2,0.4V142c0,0.3,0.3,0.6,0.6,0.6c0.3,0,0.6-0.3,0.6-0.6V62.6l15-15
			C617,47.4,616.7,47.1,616.5,46.7z"/>
		<path class="st5" d="M619,48.8c-2.1,0-3.7-1.7-3.7-3.7c0-2.1,1.7-3.7,3.7-3.7s3.7,1.7,3.7,3.7C622.7,47.1,621.1,48.8,619,48.8z
			 M619,42.5c-1.4,0-2.5,1.1-2.5,2.5c0,1.4,1.1,2.5,2.5,2.5s2.5-1.1,2.5-2.5C621.5,43.6,620.4,42.5,619,42.5z"/>
	</g>
	<g>
		<path class="st5" d="M621.3,75.7l-5.6,5.6c-0.1,0.1-0.2,0.3-0.2,0.4V142c0,0.3,0.3,0.6,0.6,0.6c0.3,0,0.6-0.3,0.6-0.6v-60l5.4-5.4
			C621.8,76.3,621.5,76,621.3,75.7z"/>
		<path class="st5" d="M623.8,77.7c-2.1,0-3.7-1.7-3.7-3.7c0-2.1,1.7-3.7,3.7-3.7s3.7,1.7,3.7,3.7C627.6,76,625.9,77.7,623.8,77.7z
			 M623.8,71.5c-1.4,0-2.5,1.1-2.5,2.5c0,1.4,1.1,2.5,2.5,2.5s2.5-1.1,2.5-2.5C626.4,72.6,625.2,71.5,623.8,71.5z"/>
	</g>
	<g>
		<path class="st5" d="M573.1,62l-15.2-15.2c-0.2,0.3-0.5,0.6-0.9,0.9l15,15V142c0,0.3,0.3,0.6,0.6,0.6c0.3,0,0.6-0.3,0.6-0.6V62.4
			C573.3,62.2,573.3,62.1,573.1,62z"/>
		<path class="st5" d="M555.4,48.8c-2.1,0-3.7-1.7-3.7-3.7c0-2.1,1.7-3.7,3.7-3.7c2.1,0,3.7,1.7,3.7,3.7
			C559.1,47.1,557.4,48.8,555.4,48.8z M555.4,42.5c-1.4,0-2.5,1.1-2.5,2.5c0,1.4,1.1,2.5,2.5,2.5c1.4,0,2.5-1.1,2.5-2.5
			C557.9,43.6,556.8,42.5,555.4,42.5z"/>
	</g>
	<g>
		<path class="st5" d="M558.7,81.3l-5.6-5.6c-0.2,0.3-0.5,0.6-0.9,0.9l5.4,5.4v60c0,0.3,0.3,0.6,0.6,0.6c0.3,0,0.6-0.3,0.6-0.6V81.7
			C558.8,81.5,558.8,81.4,558.7,81.3z"/>
		<path class="st5" d="M550.5,77.7c-2.1,0-3.7-1.7-3.7-3.7c0-2.1,1.7-3.7,3.7-3.7s3.7,1.7,3.7,3.7C554.3,76,552.6,77.7,550.5,77.7z
			 M550.5,71.5c-1.4,0-2.5,1.1-2.5,2.5c0,1.4,1.1,2.5,2.5,2.5s2.5-1.1,2.5-2.5C553.1,72.6,551.9,71.5,550.5,71.5z"/>
	</g>
</g>
</svg>
